<svg width="32" height="32" fill="none" xmlns="http://www.w3.org/2000/svg"><path d="M23.94 15.81c-.125-.183-3.153-4.477-7.94-4.477-4.107 0-7.768 4.27-7.922 4.451a.335.335 0 000 .431c.155.182 3.815 4.451 7.922 4.451 4.107 0 7.767-4.269 7.921-4.45a.333.333 0 00.02-.406zM16 20c-3.293 0-6.423-3.14-7.219-4 .794-.86 3.922-4 7.219-4 3.853 0 6.572 3.135 7.236 3.982C22.47 16.814 19.321 20 16 20z" fill="#086CF9"/><path d="M16 13.333A2.67 2.67 0 0013.335 16a2.67 2.67 0 002.667 2.666A2.67 2.67 0 0018.667 16a2.67 2.67 0 00-2.666-2.667zM16 18c-1.102 0-2-.898-2-2 0-1.103.898-2 2-2 1.103 0 2 .897 2 2 0 1.102-.897 2-2 2z" fill="#086CF9"/><circle cx="16" cy="16" r="15.7" stroke="#C8C8C8" stroke-width=".6"/></svg>