<svg width="32" height="32" fill="none" xmlns="http://www.w3.org/2000/svg"><path d="M23.977 14.164a.469.469 0 00-.378-.32l-4.96-.72-2.219-4.495a.469.469 0 00-.84 0l-2.219 4.495-4.96.72a.469.469 0 00-.26.8l3.59 3.499-.848 4.94a.469.469 0 00.68.494L16 21.245l4.436 2.332a.469.469 0 00.68-.494l-.847-4.94 3.59-3.499a.469.469 0 00.118-.48zm-4.539 3.48a.469.469 0 00-.135.415l.729 4.246-3.814-2.005a.469.469 0 00-.436 0l-3.814 2.005.728-4.247a.469.469 0 00-.134-.414l-3.086-3.008 4.264-.62a.469.469 0 00.353-.256L16 9.896l1.907 3.864c.068.138.2.234.353.256l4.264.62-3.086 3.008z" fill="#086CF9"/><circle cx="16" cy="16" r="15.7" stroke="#C8C8C8" stroke-width=".6"/></svg>