<svg width="80" height="80" viewBox="0 0 80 80" fill="none" xmlns="http://www.w3.org/2000/svg">
<g clip-path="url(#clip0_28_636)">
<path d="M14.0704 61.8671C12.9504 61.8671 11.8738 62.1466 10.9186 62.6715C5.88684 56.2213 3.125 48.2086 3.125 40C3.125 19.6667 19.6667 3.125 40 3.125C42.4719 3.125 44.9426 3.37097 47.3438 3.8562C48.1885 4.0271 49.0137 3.48022 49.1846 2.63428C49.3555 1.78833 48.8086 0.964356 47.9626 0.792847C45.3583 0.266724 42.6794 0 40 0C29.3158 0 19.2706 4.16077 11.7157 11.7157C4.16077 19.2706 0 29.3158 0 40C0 48.9874 3.05176 57.7582 8.60779 64.7894C7.89246 65.8582 7.50793 67.1143 7.50793 68.4296C7.50793 70.1825 8.19092 71.8304 9.43054 73.0695C10.6696 74.3091 12.3175 74.9921 14.0704 74.9921C15.8234 74.9921 17.4713 74.3091 18.7109 73.0695C19.9506 71.8304 20.6329 70.1819 20.6329 68.429C20.6329 66.6766 19.9506 65.0281 18.7109 63.7891C17.4713 62.5494 15.8234 61.8671 14.0704 61.8671ZM16.5009 70.86C15.8521 71.5094 14.9884 71.8671 14.0704 71.8671C13.1525 71.8671 12.2894 71.5094 11.64 70.86C10.9906 70.2106 10.6329 69.3475 10.6329 68.4296C10.6329 67.511 10.9906 66.6479 11.64 65.9985C12.2888 65.3491 13.1525 64.9921 14.0704 64.9921C14.9884 64.9921 15.8514 65.3497 16.5009 65.9985C17.1503 66.6479 17.5079 67.511 17.5079 68.4296C17.5079 69.3475 17.1503 70.2106 16.5009 70.86Z" fill="#086CF9"/>
<path d="M71.3916 15.2086C73.0902 12.6604 72.8173 9.17651 70.5706 6.92981C69.331 5.6908 67.6831 5.00781 65.9301 5.00781C64.1772 5.00781 62.5292 5.6908 61.2896 6.92981C60.05 8.16943 59.3676 9.81738 59.3676 11.5703C59.3676 13.3232 60.05 14.9712 61.2896 16.2108C62.5292 17.4504 64.1772 18.1328 65.9301 18.1328C67.0501 18.1328 68.1268 17.8533 69.082 17.3284C74.1137 23.7792 76.8756 31.7913 76.8756 39.9999C76.8756 60.3331 60.3338 76.8749 40.0006 76.8749C37.5531 76.8749 35.1055 76.6338 32.727 76.1577C31.8811 75.9886 31.0577 76.5374 30.888 77.3833C30.7189 78.2299 31.2677 79.0526 32.1136 79.2223C34.6936 79.738 37.3474 79.9999 40.0006 79.9999C50.6848 79.9999 60.7299 75.8391 68.2849 68.2842C75.8398 60.7292 80.0006 50.6841 80.0006 39.9999C80.0006 31.0118 76.9482 22.2405 71.3916 15.2086ZM63.4997 14.0013C62.8503 13.3519 62.4926 12.4889 62.4926 11.5703C62.4926 10.6523 62.8503 9.78931 63.4997 9.13989C64.1485 8.49048 65.0122 8.13281 65.9301 8.13281C66.8481 8.13281 67.7117 8.49048 68.3612 9.13989C69.7009 10.4802 69.7009 12.661 68.3612 14.0013C67.7117 14.6501 66.8481 15.0078 65.9301 15.0078C65.0115 15.0078 64.1485 14.6501 63.4997 14.0013Z" fill="#086CF9"/>
<path d="M33.5527 66.875C33.5527 67.738 34.2528 68.4375 35.1152 68.4375H44.8851C45.7482 68.4375 46.4476 67.738 46.4476 66.875V63.8458C48.5021 63.2928 50.4662 62.4786 52.3119 61.4154L54.4506 63.5541C54.7435 63.847 55.1409 64.0118 55.5559 64.0118C55.9697 64.0118 56.3677 63.847 56.6606 63.5535L63.5662 56.6431C64.1759 56.0327 64.1759 55.0433 63.5662 54.4336L61.4299 52.2974C62.4932 50.4517 63.3074 48.4875 63.8604 46.4331H66.8779C67.741 46.4331 68.4404 45.7336 68.4404 44.8706V35.1007C68.4404 34.2377 67.741 33.5382 66.8779 33.5382H63.8597C63.3068 31.4844 62.4932 29.5203 61.4299 27.6746L63.5546 25.5499C63.8475 25.257 64.0123 24.859 64.0123 24.4446C64.0117 24.0302 63.8469 23.6322 63.554 23.3392L56.6429 16.4337C56.0332 15.824 55.0438 15.824 54.4335 16.4343L52.3119 18.5565C50.4662 17.4933 48.5021 16.6791 46.4476 16.1261V13.125C46.4476 12.262 45.7482 11.5625 44.8851 11.5625H35.1152C34.2528 11.5625 33.5527 12.262 33.5527 13.125V16.1267C31.4989 16.6791 29.5348 17.4933 27.6891 18.5565L25.5669 16.4343C24.9572 15.8246 23.9678 15.824 23.3574 16.4337L16.447 23.3398C16.1534 23.6328 15.9886 24.0302 15.9886 24.4446C15.9886 24.859 16.1534 25.257 16.4464 25.5499L18.571 27.6746C17.5078 29.5203 16.6936 31.4838 16.1406 33.5382H13.1285C12.2655 33.5382 11.566 34.2377 11.566 35.1001L11.5605 44.87C11.5599 45.2844 11.7247 45.6824 12.0177 45.9753C12.3107 46.2683 12.708 46.4331 13.123 46.4331H16.1406C16.6936 48.4875 17.5078 50.4517 18.571 52.2974L16.4348 54.4336C15.8251 55.0433 15.8245 56.0327 16.4348 56.6431L23.3403 63.5535C23.6333 63.8464 24.0306 64.0118 24.4451 64.0118H24.4457C24.8601 64.0118 25.2574 63.847 25.5504 63.5541L27.6885 61.4154C29.5348 62.4786 31.4989 63.2928 33.5527 63.8458V66.875ZM28.3013 58.1293C27.683 57.7295 26.8694 57.8162 26.3481 58.3368L24.4457 60.2393L19.749 55.5389L21.6497 53.6377C22.1703 53.1171 22.257 52.3035 21.8572 51.6852C20.4406 49.4928 19.4445 47.0898 18.8976 44.5422C18.7426 43.8226 18.1066 43.3081 17.3699 43.3081H14.6862L14.6898 36.6632H17.3699C18.1066 36.6632 18.7426 36.1493 18.8976 35.4291C19.4445 32.8821 20.4406 30.4791 21.8572 28.2867C22.257 27.6685 22.1703 26.8549 21.6497 26.3342L19.7612 24.4452L24.4615 19.7485L26.3481 21.6357C26.8694 22.1564 27.6824 22.2424 28.3013 21.8433C30.493 20.4266 32.896 19.4305 35.4436 18.8837C36.1632 18.7286 36.6777 18.092 36.6777 17.356V14.6875H43.3226V17.3553C43.3226 18.092 43.8366 18.7286 44.5568 18.8831C47.1038 19.4305 49.5073 20.426 51.6991 21.8427C52.3174 22.2424 53.131 22.1564 53.6516 21.6351L55.5388 19.7485L60.2391 24.4452L58.3507 26.3336C57.8295 26.8549 57.7434 27.6685 58.1432 28.2867C59.5598 30.4791 60.5553 32.8821 61.1028 35.4291C61.2572 36.1493 61.8938 36.6632 62.6305 36.6632H65.3154V43.3081H62.6305C61.8938 43.3081 61.2578 43.8226 61.1028 44.5422C60.5559 47.0892 59.5598 49.4928 58.1432 51.6846C57.7434 52.3035 57.8301 53.1171 58.3507 53.6377L60.2513 55.5383L55.5547 60.2386L53.6522 58.3368C53.131 57.8156 52.3174 57.7295 51.6991 58.1293C49.5067 59.5459 47.1038 60.5414 44.5568 61.0889C43.8366 61.2439 43.3226 61.8799 43.3226 62.6166V65.3125H36.6777V62.6166C36.6777 61.8805 36.1632 61.2439 35.4436 61.0889C32.8966 60.542 30.4937 59.5459 28.3013 58.1293Z" fill="#086CF9"/>
<path d="M52.9114 39.9996C52.9114 32.8805 47.1198 27.0889 40.0006 27.0889C32.8815 27.0889 27.0898 32.8805 27.0898 39.9996C27.0898 47.1188 32.8815 52.9104 40.0006 52.9104C47.1198 52.9104 52.9114 47.1188 52.9114 39.9996ZM30.2148 39.9996C30.2148 34.6035 34.6045 30.2139 40.0006 30.2139C45.3967 30.2139 49.7864 34.6041 49.7864 39.9996C49.7864 45.3951 45.3967 49.7854 40.0006 49.7854C34.6045 49.7854 30.2148 45.3958 30.2148 39.9996Z" fill="#086CF9"/>
<path d="M54.3867 5.90906C54.7981 5.90906 55.2009 5.74182 55.4915 5.45129C55.782 5.15894 55.9492 4.7561 55.9492 4.34473C55.9492 3.93579 55.7826 3.53235 55.4915 3.23999C55.2009 2.94946 54.7981 2.78223 54.3867 2.78223C53.9741 2.78223 53.5731 2.94946 53.2826 3.23999C52.9915 3.53235 52.8242 3.93396 52.8242 4.34473C52.8242 4.75732 52.9915 5.15894 53.2826 5.45129C53.5731 5.74182 53.9741 5.90906 54.3867 5.90906Z" fill="#086CF9"/>
<path d="M25.6816 74.1191C25.2709 74.1191 24.8674 74.2864 24.5769 74.5769C24.2864 74.8674 24.1191 75.2709 24.1191 75.6816C24.1191 76.0942 24.2864 76.4958 24.5769 76.7864C24.8674 77.0769 25.2709 77.2441 25.6816 77.2441C26.0924 77.2441 26.4958 77.0769 26.7864 76.7864C27.0769 76.4958 27.2441 76.0924 27.2441 75.6816C27.2441 75.2709 27.0769 74.8674 26.7864 74.5769C26.4958 74.2864 26.0924 74.1191 25.6816 74.1191Z" fill="#086CF9"/>
</g>
<defs>
<clipPath id="clip0_28_636">
<rect width="80" height="80" fill="white"/>
</clipPath>
</defs>
</svg>
