<svg width="21" height="21" viewBox="0 0 21 21" fill="none" xmlns="http://www.w3.org/2000/svg">
<g clip-path="url(#clip0_28_123)">
<path d="M17.2962 4.09574C17.1964 4.09574 17.0965 4.05759 17.0202 3.98145L17.0147 3.97596C16.8623 3.82352 16.8623 3.57633 17.0147 3.4239C17.1672 3.27146 17.4143 3.27146 17.5668 3.4239L17.5723 3.42939C17.7247 3.58183 17.7247 3.82902 17.5723 3.98145C17.4961 4.05759 17.3962 4.09574 17.2962 4.09574Z" fill="black"/>
<path d="M7.83066 9.14505C7.64343 9.14505 7.5206 9.24042 7.46185 9.43085L7.05872 10.733L6.66565 9.49387C6.58707 9.25812 6.45203 9.14062 6.26266 9.14062C6.08551 9.14062 5.95932 9.25812 5.88394 9.49387L5.48645 10.733L5.08331 9.43085C5.02029 9.24026 4.89624 9.14505 4.70917 9.14505C4.60175 9.14505 4.51202 9.18274 4.44229 9.25583C4.37134 9.32999 4.33594 9.41864 4.33594 9.52377C4.33594 9.57916 4.34586 9.63226 4.36584 9.68094L5.03906 11.4848C5.13657 11.7406 5.28931 11.868 5.4953 11.868C5.68909 11.868 5.8252 11.7517 5.90393 11.5192L6.27258 10.4285L6.64139 11.5192C6.72226 11.7517 6.85837 11.868 7.0488 11.868C7.25815 11.868 7.41089 11.7406 7.5061 11.4848L8.17932 9.68094C8.19824 9.62234 8.20816 9.56924 8.20816 9.52377C8.20816 9.41528 8.17276 9.32556 8.10074 9.25354C8.02872 9.18167 7.93808 9.14505 7.83066 9.14505Z" fill="black"/>
<path d="M16.3618 9.14505C16.1745 9.14505 16.0517 9.24042 15.993 9.43085L15.59 10.733L15.1969 9.49387C15.1183 9.25812 14.9842 9.14062 14.7938 9.14062C14.6168 9.14062 14.4904 9.25812 14.4152 9.49387L14.0177 10.733L13.6146 9.43085C13.5526 9.24026 13.4275 9.14505 13.2415 9.14505C13.1328 9.14505 13.0443 9.18274 12.9734 9.25583C12.9026 9.32999 12.8672 9.41864 12.8672 9.52377C12.8672 9.57916 12.8771 9.63226 12.8971 9.68094L13.5703 11.4848C13.6689 11.7406 13.8206 11.868 14.0276 11.868C14.2202 11.868 14.3564 11.7517 14.435 11.5192L14.8038 10.4285L15.1725 11.5192C15.2544 11.7517 15.3907 11.868 15.58 11.868C15.7905 11.868 15.9421 11.7406 16.0374 11.4848L16.7106 9.68094C16.7304 9.62234 16.7405 9.56924 16.7405 9.52377C16.7405 9.41528 16.7039 9.32556 16.632 9.25354C16.56 9.18167 16.4702 9.14505 16.3618 9.14505Z" fill="black"/>
<path d="M12.0963 9.14505C11.9091 9.14505 11.7862 9.24042 11.7275 9.43085L11.3245 10.733L10.9314 9.49387C10.8527 9.25812 10.7187 9.14062 10.5283 9.14062C10.3511 9.14062 10.2249 9.25812 10.1496 9.49387L9.75208 10.733L9.34909 9.43085C9.28699 9.24026 9.16187 9.14505 8.97586 9.14505C8.86737 9.14505 8.77765 9.18274 8.70792 9.25583C8.63712 9.32999 8.60156 9.41864 8.60156 9.52377C8.60156 9.57916 8.61163 9.63226 8.63147 9.68094L9.30469 11.4848C9.40326 11.7406 9.55493 11.868 9.76199 11.868C9.95471 11.868 10.091 11.7517 10.1696 11.5192L10.5382 10.4285L10.907 11.5192C10.989 11.7517 11.124 11.868 11.3144 11.868C11.5238 11.868 11.6765 11.7406 11.7717 11.4848L12.4449 9.68094C12.4649 9.62234 12.4738 9.56924 12.4738 9.52377C12.4738 9.41528 12.4384 9.32556 12.3664 9.25354C12.2943 9.18167 12.2036 9.14505 12.0963 9.14505Z" fill="black"/>
<path d="M18.6009 4.63635C18.4742 4.46179 18.2303 4.42303 18.0557 4.54953C17.8811 4.67603 17.8422 4.92001 17.9687 5.09457C18.5083 5.83875 18.9277 6.647 19.2207 7.49829C18.2861 6.4819 16.8873 5.64481 15.1864 5.09686C14.8666 4.19308 14.4673 3.38193 14.004 2.70749C13.7269 2.30405 13.4326 1.95401 13.1239 1.6586C14.0803 1.94165 14.9881 2.3811 15.8171 2.96735C15.9932 3.09186 16.2367 3.05005 16.3612 2.87396C16.4857 2.69803 16.4438 2.45435 16.2678 2.32999C14.5747 1.13278 12.5801 0.5 10.4994 0.5C7.82834 0.5 5.3172 1.54004 3.42862 3.42862C1.54004 5.3172 0.5 7.82834 0.5 10.4994C0.5 13.1706 1.54004 15.6819 3.42862 17.5708C5.3172 19.4597 7.82834 20.5 10.4994 20.5C13.1704 20.5 15.6819 19.4597 17.5708 17.5708C19.4597 15.6819 20.5 13.1706 20.5 10.4994C20.5 8.3775 19.8433 6.35022 18.6009 4.63635ZM18.4283 11.672V10.8897H19.6931C19.497 12.4086 18.1651 13.8168 16.0302 14.75C15.9219 14.602 15.7856 14.4758 15.6294 14.3791C15.7077 14.0394 15.7759 13.6912 15.8331 13.338H16.7634C17.6814 13.338 18.4283 12.5906 18.4283 11.672ZM17.4138 6.99216C18.7494 7.8703 19.5454 8.96466 19.6937 10.1091H18.4283V9.33682C18.4283 8.41809 17.6814 7.67087 16.7634 7.67087H15.8355C15.7435 7.10324 15.6233 6.55209 15.4774 6.02429C16.1883 6.29071 16.8406 6.61526 17.4138 6.99216ZM15.0441 7.67087H10.8897V6.14865C11.3403 6.01971 11.6996 5.67349 11.8469 5.23114C12.8016 5.31277 13.7208 5.48093 14.5755 5.7269C14.7703 6.33801 14.9283 6.99063 15.0441 7.67087ZM10.8897 1.31192C11.9981 1.48785 12.8351 2.38446 13.3607 3.14954C13.6955 3.63705 13.9946 4.20468 14.2512 4.83228C13.5038 4.64932 12.7095 4.51962 11.8797 4.4505C11.7599 3.95383 11.3783 3.55847 10.8897 3.41855V1.31192ZM11.1389 4.7836C11.1389 5.13623 10.852 5.4231 10.4994 5.4231C10.1468 5.4231 9.85989 5.13623 9.85989 4.7836C9.85989 4.43097 10.1468 4.1441 10.4994 4.1441C10.852 4.1441 11.1389 4.43097 11.1389 4.7836ZM10.1091 6.14865V7.67087H5.95578C6.07144 6.99078 6.22922 6.33817 6.42407 5.72705C7.27841 5.48108 8.19745 5.31293 9.15204 5.23114C9.29944 5.67365 9.65878 6.01971 10.1091 6.14865ZM10.1091 1.31192V3.41855C9.62048 3.55847 9.23901 3.95383 9.11908 4.4505C8.28961 4.51978 7.49539 4.64948 6.74817 4.83243C7.00482 4.20483 7.30389 3.63721 7.63882 3.14954C8.16449 2.38446 9.00113 1.48801 10.1091 1.31192ZM7.87076 1.66318C7.5639 1.95752 7.27109 2.30618 6.99536 2.70764C6.53195 3.38208 6.13263 4.19339 5.81296 5.09702C4.11557 5.64404 2.71924 6.4787 1.78464 7.49249C2.75128 4.69922 5.02499 2.51126 7.87076 1.66318ZM4.31302 13.338H5.16583C5.22275 13.6883 5.29095 14.0365 5.36984 14.3789C5.21344 14.4757 5.07733 14.6019 4.96884 14.7496C2.83459 13.8168 1.50296 12.4087 1.30688 10.8899H2.64813V11.6722C2.64813 12.5906 3.39505 13.338 4.31302 13.338ZM2.64813 9.33682V10.1091H1.30643C1.45459 8.96481 2.25064 7.8703 3.58624 6.99216C4.15921 6.61542 4.81137 6.29086 5.52228 6.02444C5.37656 6.55225 5.25647 7.10339 5.16446 7.67087H4.31302C3.39505 7.67087 2.64813 8.41809 2.64813 9.33682ZM1.78662 13.5124C2.49753 14.2833 3.48431 14.9583 4.69861 15.4835C4.69617 15.5179 4.69449 15.5525 4.69449 15.5874C4.69449 16.3705 5.33154 17.0076 6.11462 17.0076C6.16391 17.0076 6.21274 17.005 6.2608 17.0001C6.71811 17.9692 7.2662 18.7573 7.87595 19.3383C5.02957 18.4918 2.75479 16.3049 1.78662 13.5124ZM5.47513 15.5874C5.47513 15.2348 5.76199 14.9479 6.11462 14.9479C6.46725 14.9479 6.75397 15.235 6.75397 15.5874C6.75397 15.9401 6.46725 16.2269 6.11462 16.2269C5.76199 16.2269 5.47513 15.9401 5.47513 15.5874ZM10.1091 19.6879C8.92285 19.4966 7.81033 18.4379 6.98575 16.7077C7.12949 16.5957 7.25125 16.4566 7.34326 16.2982C8.23529 16.4781 9.16272 16.58 10.1091 16.602V19.6879ZM10.1091 15.8212C9.22742 15.7997 8.36407 15.7055 7.53354 15.5403C7.50851 14.7816 6.88611 14.1717 6.12256 14.1676C6.0603 13.8942 6.00476 13.6171 5.95715 13.338H10.1091V15.8212ZM4.31302 12.5573C3.8255 12.5573 3.42877 12.1602 3.42877 11.672V9.33682C3.42877 8.84869 3.8255 8.45151 4.31302 8.45151H15.4986H15.4995H15.5H16.7634C17.2509 8.45151 17.6477 8.84869 17.6477 9.33682V11.672C17.6477 12.1602 17.2509 12.5573 16.7634 12.5573H4.31302ZM14.8843 14.9479C14.9504 14.9479 15.0142 14.9582 15.0741 14.9768C15.0743 14.9768 15.0743 14.9768 15.0744 14.9769C15.3344 15.058 15.5238 15.301 15.5238 15.5874C15.5238 15.9401 15.2369 16.2269 14.8843 16.2269C14.5317 16.2269 14.2448 15.9401 14.2448 15.5874C14.2448 15.235 14.5317 14.9479 14.8843 14.9479ZM13.4654 15.5404C12.635 15.7057 11.7717 15.7997 10.8897 15.8212V13.338H15.0419C14.994 13.619 14.9386 13.896 14.8767 14.1676C14.113 14.1716 13.4903 14.7816 13.4654 15.5404ZM10.8897 19.6879V16.602C11.8365 16.58 12.7638 16.4782 13.6558 16.2985C13.7478 16.4569 13.8694 16.5959 14.0133 16.7079C13.1895 18.4381 12.0768 19.4967 10.8897 19.6879ZM13.1241 19.3382C13.7336 18.757 14.2816 17.9692 14.7381 17.0001C14.7862 17.005 14.835 17.0076 14.8843 17.0076C15.6674 17.0076 16.3044 16.3705 16.3044 15.5874C16.3044 15.5526 16.3028 15.5182 16.3002 15.484C17.5151 14.9585 18.5023 14.2831 19.2134 13.5119C18.2454 16.3044 15.9706 18.4913 13.1241 19.3382Z" fill="black"/>
</g>
<defs>
<clipPath id="clip0_28_123">
<rect width="20" height="20" fill="white" transform="translate(0.5 0.5)"/>
</clipPath>
</defs>
</svg>
